<svg width="30" height="30" viewBox="0 0 30 30" fill="none" xmlns="http://www.w3.org/2000/svg">
<path d="M30 15.7033C30 16.7521 29.748 17.7248 29.2441 18.6154C28.7402 19.506 28.0664 20.2033 27.2168 20.6896C27.2402 20.8478 27.252 21.0939 27.252 21.4279C27.252 23.0158 26.7188 24.3634 25.6641 25.4767C24.6035 26.5959 23.3262 27.1525 21.832 27.1525C21.1641 27.1525 20.5254 27.0294 19.9219 26.7834C19.4531 27.7443 18.7793 28.5177 17.8945 29.1095C17.0156 29.7072 16.0488 30.0002 15 30.0002C13.9277 30.0002 12.9551 29.713 12.0879 29.1271C11.2148 28.547 10.5469 27.7677 10.0781 26.7834C9.47461 27.0294 8.8418 27.1525 8.16797 27.1525C6.67383 27.1525 5.39062 26.5959 4.31836 25.4767C3.24609 24.3634 2.71289 23.0099 2.71289 21.4279C2.71289 21.2521 2.73633 21.006 2.77734 20.6896C1.92773 20.1974 1.25391 19.506 0.75 18.6154C0.251953 17.7248 0 16.7521 0 15.7033C0 14.59 0.28125 13.5646 0.837891 12.6388C1.39453 11.713 2.14453 11.0275 3.08203 10.5822C2.83594 9.91422 2.71289 9.24039 2.71289 8.57242C2.71289 6.99039 3.24609 5.63687 4.31836 4.52359C5.39062 3.41031 6.67383 2.84781 8.16797 2.84781C8.83594 2.84781 9.47461 2.97086 10.0781 3.21695C10.5469 2.25601 11.2207 1.48257 12.1055 0.890778C12.9844 0.298981 13.9512 0.000152588 15 0.000152588C16.0488 0.000152588 17.0156 0.298981 17.8945 0.884918C18.7734 1.47672 19.4531 2.25015 19.9219 3.21109C20.5254 2.965 21.1582 2.84195 21.832 2.84195C23.3262 2.84195 24.6035 3.39859 25.6641 4.51773C26.7246 5.63687 27.252 6.98453 27.252 8.56656C27.252 9.30484 27.1406 9.97281 26.918 10.5763C27.8555 11.0216 28.6055 11.7072 29.1621 12.633C29.7188 13.5646 30 14.59 30 15.7033ZM14.3613 20.2209L20.5547 10.9455C20.7129 10.6994 20.7598 10.4298 20.707 10.1427C20.6484 9.85562 20.502 9.62711 20.2559 9.47476C20.0098 9.31656 19.7402 9.26382 19.4531 9.30484C19.1602 9.35172 18.9258 9.49234 18.75 9.73843L13.2949 17.9416L10.7812 15.4337C10.5586 15.2111 10.3008 15.1056 10.0137 15.1173C9.7207 15.1291 9.46875 15.2345 9.24609 15.4337C9.04688 15.633 8.94727 15.8849 8.94727 16.1896C8.94727 16.4884 9.04688 16.7404 9.24609 16.9455L12.6973 20.3966L12.8672 20.5314C13.0664 20.6662 13.2715 20.7306 13.4707 20.7306C13.8633 20.7248 14.1621 20.5607 14.3613 20.2209Z" fill="#1DA1F2"/>
</svg>
