<svg width="149" height="76" viewBox="0 0 149 76" fill="none" xmlns="http://www.w3.org/2000/svg">
<path d="M68.5484 68.0499L68.6897 49.3924C68.6897 31.3835 62.251 15.5984 45.0678 15.5984C27.8847 15.5984 25.4832 32.2897 25.4832 46.0001V68.0499H68.5484ZM123.458 68.0499L123.317 44.5867C123.317 26.8201 119.232 9.41521 101.047 9.41521C82.8616 9.41521 76.5769 27.8069 76.5769 45.8588V68.0499H123.458Z" fill="white"/>
<path d="M120.906 76L27.513 76C22.1663 76 15.902 76 15.902 70.3685V66.5133H5.93171C2.39792 66.5133 0 64.1153 0 60.7076C0 57.2999 2.39792 54.7756 5.93171 54.7756H15.902V46.4457H5.93171C2.39792 46.4457 0 44.0477 0 40.64C0 37.2323 2.39792 34.7081 5.93171 34.7081H16.2806C18.4262 16.6599 29.6585 5.42708 45.6868 5.42708C56.2881 5.42708 66.2584 11.9901 70.5495 21.4559C74.4619 8.45615 85.1894 0 98.9459 0C117.877 0 130.119 12.9997 132.012 34.7081H142.361C145.895 34.7081 148.293 37.2323 148.293 40.64C148.293 44.0477 145.895 46.4457 142.361 46.4457H132.264V54.7756H142.361C145.895 54.7756 148.293 57.2999 148.293 60.7076C148.293 64.1153 145.895 66.5133 142.361 66.5133H132.264V70.3685C132.264 76 127.847 76 120.906 76ZM66.4558 64.2415L66.582 47.5816C66.582 34.4754 60.8327 17.4059 45.4894 17.4059C30.1462 17.4059 28.0018 32.3101 28.0018 44.5525L28.0018 64.2415H66.4558ZM120.038 64.2415L119.912 43.2904C119.912 27.4261 116.265 11.8847 100.027 11.8847C83.7887 11.8847 78.1769 28.3072 78.1769 44.4263V64.2415H120.038Z" fill="black"/>
<ellipse cx="108.612" cy="42.5463" rx="13.7431" ry="13.658" fill="black"/>
<ellipse cx="111.721" cy="37.1695" rx="3.10328" ry="3.85507" fill="white"/>
<ellipse cx="54.9536" cy="42.5463" rx="13.7431" ry="13.658" fill="black"/>
<ellipse cx="58.0625" cy="37.1695" rx="3.10328" ry="3.85507" fill="white"/>
</svg>
