<svg width="30" height="30" viewBox="0 0 30 30" fill="none" xmlns="http://www.w3.org/2000/svg">
<path d="M14.9931 29.09C22.7157 29.09 29.0899 22.7127 29.0899 15C29.0899 7.2873 22.7021 0.910004 14.9795 0.910004C7.2705 0.910004 0.909912 7.2873 0.909912 15C0.909912 22.7127 7.28412 29.09 14.9931 29.09ZM14.9931 26.2829C8.74147 26.2829 3.74289 21.2547 3.74289 15C3.74289 8.74535 8.74147 3.73073 14.9795 3.73073C21.2311 3.73073 26.2569 8.74535 26.2705 15C26.2842 21.2547 21.2447 26.2829 14.9931 26.2829ZM15.7422 21.2001C16.573 21.2001 17.077 20.696 17.077 19.7557V10.2443C17.077 9.34493 16.5186 8.79986 15.6332 8.79986C15.034 8.79986 14.5981 8.94975 13.9307 9.39943L11.5881 10.9801C11.2203 11.239 11.0569 11.4979 11.0569 11.9204C11.0569 12.4246 11.4383 12.8606 11.9694 12.8606C12.201 12.8606 12.3644 12.8334 12.7049 12.6017L14.3257 11.5252H14.4347V19.7557C14.4347 20.696 14.9386 21.2001 15.7422 21.2001Z" fill="#1C1C1E"/>
</svg>
