<svg width="21" height="21" viewBox="0 0 21 21" fill="none" xmlns="http://www.w3.org/2000/svg">
<path d="M0.647217 10.5391C0.647217 11.2656 1.24487 11.8516 1.95972 11.8516H9.14331V19.0352C9.14331 19.75 9.74097 20.3477 10.4558 20.3477C11.1707 20.3477 11.7683 19.75 11.7683 19.0352V11.8516H18.9519C19.6667 11.8516 20.2644 11.2656 20.2644 10.5391C20.2644 9.82422 19.6667 9.22656 18.9519 9.22656H11.7683V2.04297C11.7683 1.32812 11.1707 0.730469 10.4558 0.730469C9.74097 0.730469 9.14331 1.32812 9.14331 2.04297V9.22656H1.95972C1.24487 9.22656 0.647217 9.82422 0.647217 10.5391Z" fill="black"/>
</svg>
