<svg width="22" height="21" viewBox="0 0 22 21" fill="none" xmlns="http://www.w3.org/2000/svg">
<path d="M10.9899 20.9911C16.6852 20.9911 21.3861 16.2902 21.3861 10.6049C21.3861 4.91964 16.6752 0.21875 10.9799 0.21875C5.29461 0.21875 0.60376 4.91964 0.60376 10.6049C0.60376 16.2902 5.30465 20.9911 10.9899 20.9911ZM10.9899 18.9219C6.37943 18.9219 2.69305 15.2154 2.69305 10.6049C2.69305 5.99442 6.37943 2.29799 10.9799 2.29799C15.5904 2.29799 19.2968 5.99442 19.3069 10.6049C19.3169 15.2154 15.6004 18.9219 10.9899 18.9219ZM8.07697 9.6808C8.66961 9.6808 9.17184 9.15848 9.17184 8.42522C9.17184 7.69196 8.66961 7.16964 8.07697 7.16964C7.49438 7.16964 7.0022 7.69196 7.0022 8.42522C7.0022 9.15848 7.49438 9.6808 8.07697 9.6808ZM13.933 9.6808C14.5256 9.6808 15.0279 9.15848 15.0279 8.42522C15.0279 7.69196 14.5256 7.16964 13.933 7.16964C13.3404 7.16964 12.8582 7.69196 12.8582 8.42522C12.8582 9.15848 13.3404 9.6808 13.933 9.6808ZM7.46425 13.4676C7.46425 14.1406 8.88054 15.5368 10.9799 15.5368C13.0893 15.5368 14.5055 14.1406 14.5055 13.4676C14.5055 13.2266 14.2645 13.106 14.0435 13.2165C13.3102 13.5982 12.4464 14.0502 10.9799 14.0502C9.5234 14.0502 8.65956 13.5982 7.9263 13.2165C7.70532 13.106 7.46425 13.2266 7.46425 13.4676Z" fill="#ED782F"/>
</svg>
