<svg width="28" height="28" viewBox="0 0 28 28" fill="none" xmlns="http://www.w3.org/2000/svg">
<path d="M14.0832 28.18C21.8058 28.18 28.18 21.8058 28.18 14.0968C28.18 6.37421 21.7922 0 14.0696 0C6.36059 0 0 6.37421 0 14.0968C0 21.8058 6.37421 28.18 14.0832 28.18ZM14.0832 25.3606C7.83156 25.3606 2.83298 20.3484 2.83298 14.0968C2.83298 7.84518 7.83156 2.81936 14.0696 2.81936C20.3212 2.81936 25.347 7.84518 25.3606 14.0968C25.3743 20.3484 20.3348 25.3606 14.0832 25.3606ZM14.0151 20.5255C17.0251 20.5255 18.8775 19.0137 18.8775 16.8481C18.8775 15.2681 17.7061 14.0015 16.0853 13.8653V13.7427C17.4201 13.5384 18.4825 12.3126 18.4825 10.9369C18.4825 9.01651 16.6982 7.66812 14.1241 7.66812C11.8495 7.66812 10.1606 8.66239 9.76562 10.2287C9.69752 10.433 9.6839 10.5964 9.6839 10.8144C9.6839 11.4545 10.1334 11.8631 10.8007 11.8631C11.3319 11.8631 11.6588 11.6316 11.8767 11.1412C12.19 10.2287 12.9663 9.67028 14.0832 9.67028C15.2818 9.67028 16.0309 10.2559 16.0309 11.223C16.0309 12.2172 15.2 12.9391 14.0287 12.9391H13.3341C12.6939 12.9391 12.2717 13.3341 12.2717 13.9334C12.2717 14.519 12.7076 14.9276 13.3341 14.9276H14.0968C15.4724 14.9276 16.3986 15.6495 16.3986 16.7255C16.3986 17.7879 15.4588 18.4961 14.0696 18.4961C12.7484 18.4961 11.9993 17.8696 11.6588 17.0251C11.4273 16.5348 11.0868 16.3033 10.5828 16.3033C9.90182 16.3033 9.45235 16.7391 9.45235 17.3793C9.45235 17.5972 9.47959 17.7334 9.53407 17.9377C9.96992 19.4768 11.7814 20.5255 14.0151 20.5255Z" fill="black"/>
</svg>
