<svg width="28" height="28" viewBox="0 0 28 28" fill="none" xmlns="http://www.w3.org/2000/svg">
<path d="M14.09 28.18C21.8163 28.18 28.1936 21.8027 28.1936 14.09C28.1936 6.37729 21.8027 0 14.0764 0C6.36367 0 0 6.37729 0 14.09C0 21.8027 6.37729 28.18 14.09 28.18ZM14.09 25.3729C7.83535 25.3729 2.83435 20.3447 2.83435 14.09C2.83435 7.83535 7.83535 2.82073 14.0764 2.82073C20.331 2.82073 25.3593 7.83535 25.3729 14.09C25.3865 20.3447 20.3447 25.3729 14.09 25.3729ZM10.9967 20.2084H17.9055C18.5732 20.2084 19.0229 19.7996 19.0229 19.1455C19.0229 18.4778 18.5732 18.0962 17.9055 18.0962H13.4768V17.9872L16.3384 15.003C17.6466 13.6948 18.4642 12.6183 18.4642 11.1739C18.4642 9.06175 16.7336 7.6582 14.1309 7.6582C12.1141 7.6582 10.3699 8.80284 9.89298 10.3563C9.82485 10.5607 9.81122 10.7515 9.81122 10.9559C9.81122 11.5827 10.2473 11.9779 10.8877 11.9779C11.46 11.9779 11.7462 11.6508 11.9915 11.2556C12.3458 10.5062 12.9862 9.72946 14.1581 9.72946C15.2891 9.72946 16.025 10.3835 16.025 11.3783C16.025 12.264 15.3028 13.0271 14.4715 13.872L10.3427 18.1508C9.98837 18.4778 9.86573 18.8048 9.86573 19.1728C9.86573 19.7996 10.3018 20.2084 10.9967 20.2084Z" fill="black"/>
</svg>
